<svg xmlns="http://www.w3.org/2000/svg" width="920" height="540" viewBox="0 0 920 540">
<rect width="100%" height="100%" fill="#ffffff"/>
<style>
text{font-family:Arial,Helvetica,sans-serif;fill:#1f2933}
.title{font-size:18px;font-weight:700}
.axis{stroke:#52606d;stroke-width:1}
.grid{stroke:#d9e2ec;stroke-width:1}
.tick{font-size:11px;fill:#52606d}
.label{font-size:12px;fill:#334e68}
.point-label{font-size:11px;fill:#243b53;font-weight:600}
.legend{font-size:12px;fill:#243b53}
</style>
<text x="460.0" y="28" text-anchor="middle" class="title">Strong Scaling Work-Weighted Throughput</text>
<line x1="94" y1="448" x2="886" y2="448" class="axis"/>
<line x1="94" y1="62" x2="94" y2="448" class="axis"/>
<line x1="149.6" y1="62" x2="149.6" y2="448" class="grid"/>
<line x1="149.6" y1="448" x2="149.6" y2="453" class="axis"/>
<text x="149.6" y="471" text-anchor="middle" class="tick">2</text>
<line x1="490.0" y1="62" x2="490.0" y2="448" class="grid"/>
<line x1="490.0" y1="448" x2="490.0" y2="453" class="axis"/>
<text x="490.0" y="471" text-anchor="middle" class="tick">4</text>
<line x1="830.4" y1="62" x2="830.4" y2="448" class="grid"/>
<line x1="830.4" y1="448" x2="830.4" y2="453" class="axis"/>
<text x="830.4" y="471" text-anchor="middle" class="tick">8</text>
<line x1="94" y1="448.0" x2="886" y2="448.0" class="grid"/>
<text x="86" y="452.0" text-anchor="end" class="tick">2.48859</text>
<line x1="94" y1="371.5" x2="886" y2="371.5" class="grid"/>
<text x="86" y="375.5" text-anchor="end" class="tick">5</text>
<line x1="94" y1="295.5" x2="886" y2="295.5" class="grid"/>
<text x="86" y="299.5" text-anchor="end" class="tick">10</text>
<line x1="94" y1="219.5" x2="886" y2="219.5" class="grid"/>
<text x="86" y="223.5" text-anchor="end" class="tick">20</text>
<line x1="94" y1="119.1" x2="886" y2="119.1" class="grid"/>
<text x="86" y="123.1" text-anchor="end" class="tick">50</text>
<line x1="94" y1="62.0" x2="886" y2="62.0" class="grid"/>
<text x="86" y="66.0" text-anchor="end" class="tick">84</text>
<text x="490.0" y="526" text-anchor="middle" class="label">MPI ranks / GPUs (log scale)</text>
<text x="16" y="255.0" text-anchor="middle" class="label" transform="rotate(-90 16 255.0)">nsys*N*m^3 / s (G units) (log scale)</text>
<polyline points="149.6,429.9 490.0,354.2 830.4,282.8" fill="none" stroke="#2563eb" stroke-width="2.5"/>
<circle cx="149.6" cy="429.9" r="4" fill="#2563eb"/>
<circle cx="490.0" cy="354.2" r="4" fill="#2563eb"/>
<circle cx="830.4" cy="282.8" r="4" fill="#2563eb"/>
<text x="156.6" y="422.9" class="point-label">100%</text>
<text x="497.0" y="347.2" class="point-label">100%</text>
<text x="837.4" y="275.8" class="point-label">96%</text>
<line x1="102" y1="75" x2="118" y2="75" stroke="#2563eb" stroke-width="2.5"/>
<text x="124" y="80" class="legend">m=2</text>
<polyline points="149.6,429.9 490.0,353.9 830.4,277.9" fill="none" stroke="#2563eb" stroke-width="2" stroke-dasharray="7 5" opacity="0.42"/>
<line x1="102" y1="95" x2="118" y2="95" stroke="#2563eb" stroke-width="2" stroke-dasharray="7 5" opacity="0.42"/>
<text x="124" y="100" class="legend">m=2 ideal</text>
<polyline points="149.6,362.7 490.0,287.9 830.4,215.5" fill="none" stroke="#16a34a" stroke-width="2.5"/>
<circle cx="149.6" cy="362.7" r="4" fill="#16a34a"/>
<circle cx="490.0" cy="287.9" r="4" fill="#16a34a"/>
<circle cx="830.4" cy="215.5" r="4" fill="#16a34a"/>
<text x="156.6" y="355.7" class="point-label">100%</text>
<text x="497.0" y="280.9" class="point-label">99%</text>
<text x="837.4" y="208.5" class="point-label">96%</text>
<line x1="102" y1="115" x2="118" y2="115" stroke="#16a34a" stroke-width="2.5"/>
<text x="124" y="120" class="legend">m=3</text>
<polyline points="149.6,362.7 490.0,286.7 830.4,210.7" fill="none" stroke="#16a34a" stroke-width="2" stroke-dasharray="7 5" opacity="0.42"/>
<line x1="102" y1="135" x2="118" y2="135" stroke="#16a34a" stroke-width="2" stroke-dasharray="7 5" opacity="0.42"/>
<text x="124" y="140" class="legend">m=3 ideal</text>
<polyline points="149.6,292.6 490.0,217.8 830.4,145.2" fill="none" stroke="#ea580c" stroke-width="2.5"/>
<circle cx="149.6" cy="292.6" r="4" fill="#ea580c"/>
<circle cx="490.0" cy="217.8" r="4" fill="#ea580c"/>
<circle cx="830.4" cy="145.2" r="4" fill="#ea580c"/>
<text x="156.6" y="285.6" class="point-label">100%</text>
<text x="497.0" y="210.8" class="point-label">99%</text>
<text x="837.4" y="138.2" class="point-label">96%</text>
<line x1="102" y1="155" x2="118" y2="155" stroke="#ea580c" stroke-width="2.5"/>
<text x="124" y="160" class="legend">m=5</text>
<polyline points="149.6,292.6 490.0,216.6 830.4,140.6" fill="none" stroke="#ea580c" stroke-width="2" stroke-dasharray="7 5" opacity="0.42"/>
<line x1="102" y1="175" x2="118" y2="175" stroke="#ea580c" stroke-width="2" stroke-dasharray="7 5" opacity="0.42"/>
<text x="124" y="180" class="legend">m=5 ideal</text>
<polyline points="149.6,232.1 490.0,156.6 830.4,82.6" fill="none" stroke="#7c3aed" stroke-width="2.5"/>
<circle cx="149.6" cy="232.1" r="4" fill="#7c3aed"/>
<circle cx="490.0" cy="156.6" r="4" fill="#7c3aed"/>
<circle cx="830.4" cy="82.6" r="4" fill="#7c3aed"/>
<text x="156.6" y="225.1" class="point-label">100%</text>
<text x="497.0" y="149.6" class="point-label">100%</text>
<text x="837.4" y="75.6" class="point-label">98%</text>
<line x1="102" y1="195" x2="118" y2="195" stroke="#7c3aed" stroke-width="2.5"/>
<text x="124" y="200" class="legend">m=8</text>
<polyline points="149.6,232.1 490.0,156.1 830.4,80.1" fill="none" stroke="#7c3aed" stroke-width="2" stroke-dasharray="7 5" opacity="0.42"/>
<line x1="102" y1="215" x2="118" y2="215" stroke="#7c3aed" stroke-width="2" stroke-dasharray="7 5" opacity="0.42"/>
<text x="124" y="220" class="legend">m=8 ideal</text>
</svg>
