<svg xmlns="http://www.w3.org/2000/svg" width="940" height="540" viewBox="0 0 940 540">
<rect width="100%" height="100%" fill="#ffffff"/>
<style>
text{font-family:Arial,Helvetica,sans-serif;fill:#1f2933}
.title{font-size:18px;font-weight:700}
.axis{stroke:#52606d;stroke-width:1}
.grid{stroke:#d9e2ec;stroke-width:1}
.tick{font-size:11px;fill:#52606d}
.label{font-size:12px;fill:#334e68}
.point-label{font-size:11px;fill:#243b53;font-weight:600}
.legend{font-size:12px;fill:#243b53}
</style>
<text x="470.0" y="28" text-anchor="middle" class="title">Central m=5 Device Mode: Phase Breakdown</text>
<line x1="94" y1="428" x2="906" y2="428" class="axis"/>
<line x1="94" y1="62" x2="94" y2="428" class="axis"/>
<line x1="94" y1="428.0" x2="906" y2="428.0" class="grid"/>
<text x="86" y="432.0" text-anchor="end" class="tick">0.00</text>
<line x1="94" y1="306.0" x2="906" y2="306.0" class="grid"/>
<text x="86" y="310.0" text-anchor="end" class="tick">50.00</text>
<line x1="94" y1="184.0" x2="906" y2="184.0" class="grid"/>
<text x="86" y="188.0" text-anchor="end" class="tick">100.00</text>
<line x1="94" y1="62.0" x2="906" y2="62.0" class="grid"/>
<text x="86" y="66.0" text-anchor="end" class="tick">150.00</text>
<text x="500.0" y="528" text-anchor="middle" class="label">64x64x2048, m=5</text>
<text x="16" y="245.0" text-anchor="middle" class="label" transform="rotate(-90 16 245.0)">phase time mean (ms)</text>
<rect x="156.3" y="218.2" width="146.2" height="209.8" fill="#2563eb"/>
<rect x="156.3" y="216.8" width="146.2" height="1.4" fill="#ea580c"/>
<rect x="156.3" y="216.4" width="146.2" height="0.4" fill="#7c3aed"/>
<rect x="156.3" y="216.3" width="146.2" height="0.1" fill="#dc2626"/>
<rect x="156.3" y="178.5" width="146.2" height="37.8" fill="#16a34a"/>
<text x="229.3" y="452" text-anchor="middle" class="tick">np=2</text>
<rect x="426.9" y="323.2" width="146.2" height="104.8" fill="#2563eb"/>
<rect x="426.9" y="321.6" width="146.2" height="1.6" fill="#ea580c"/>
<rect x="426.9" y="320.8" width="146.2" height="0.7" fill="#7c3aed"/>
<rect x="426.9" y="320.7" width="146.2" height="0.2" fill="#dc2626"/>
<rect x="426.9" y="301.7" width="146.2" height="19.0" fill="#16a34a"/>
<text x="500.0" y="452" text-anchor="middle" class="tick">np=4</text>
<rect x="697.6" y="376.0" width="146.2" height="52.0" fill="#2563eb"/>
<rect x="697.6" y="373.8" width="146.2" height="2.2" fill="#ea580c"/>
<rect x="697.6" y="372.4" width="146.2" height="1.4" fill="#7c3aed"/>
<rect x="697.6" y="372.1" width="146.2" height="0.3" fill="#dc2626"/>
<rect x="697.6" y="362.8" width="146.2" height="9.3" fill="#16a34a"/>
<text x="770.7" y="452" text-anchor="middle" class="tick">np=8</text>
<rect x="102" y="69" width="12" height="12" fill="#2563eb"/>
<text x="120" y="80" class="legend">local</text>
<rect x="102" y="89" width="12" height="12" fill="#ea580c"/>
<text x="120" y="100" class="legend">forward</text>
<rect x="102" y="109" width="12" height="12" fill="#7c3aed"/>
<text x="120" y="120" class="legend">reduced</text>
<rect x="102" y="129" width="12" height="12" fill="#dc2626"/>
<text x="120" y="140" class="legend">backward</text>
<rect x="102" y="149" width="12" height="12" fill="#16a34a"/>
<text x="120" y="160" class="legend">update</text>
</svg>
