<svg xmlns="http://www.w3.org/2000/svg" width="940" height="540" viewBox="0 0 940 540">
<rect width="100%" height="100%" fill="#ffffff"/>
<style>
text{font-family:Arial,Helvetica,sans-serif;fill:#1f2933}
.title{font-size:18px;font-weight:700}
.axis{stroke:#52606d;stroke-width:1}
.grid{stroke:#d9e2ec;stroke-width:1}
.tick{font-size:11px;fill:#52606d}
.label{font-size:12px;fill:#334e68}
.point-label{font-size:11px;fill:#243b53;font-weight:600}
.legend{font-size:12px;fill:#243b53}
</style>
<text x="470.0" y="28" text-anchor="middle" class="title">Block Size Sensitivity</text>
<line x1="94" y1="428" x2="906" y2="428" class="axis"/>
<line x1="94" y1="62" x2="94" y2="428" class="axis"/>
<line x1="94" y1="428.0" x2="906" y2="428.0" class="grid"/>
<text x="86" y="432.0" text-anchor="end" class="tick">0.00</text>
<line x1="94" y1="306.0" x2="906" y2="306.0" class="grid"/>
<text x="86" y="310.0" text-anchor="end" class="tick">100.00</text>
<line x1="94" y1="184.0" x2="906" y2="184.0" class="grid"/>
<text x="86" y="188.0" text-anchor="end" class="tick">200.00</text>
<line x1="94" y1="62.0" x2="906" y2="62.0" class="grid"/>
<text x="86" y="66.0" text-anchor="end" class="tick">300.00</text>
<text x="500.0" y="528" text-anchor="middle" class="label">block size m</text>
<text x="16" y="245.0" text-anchor="middle" class="label" transform="rotate(-90 16 245.0)">total_s_max mean (ms)</text>
<rect x="112.3" y="400.1" width="52.5" height="27.9" fill="#2563eb"/>
<rect x="167.8" y="414.0" width="52.5" height="14.0" fill="#16a34a"/>
<rect x="223.2" y="420.7" width="52.5" height="7.3" fill="#7c3aed"/>
<text x="195.5" y="452" text-anchor="middle" class="tick">m=2</text>
<rect x="315.3" y="377.0" width="52.5" height="51.0" fill="#2563eb"/>
<rect x="370.8" y="402.2" width="52.5" height="25.8" fill="#16a34a"/>
<rect x="426.2" y="414.7" width="52.5" height="13.3" fill="#7c3aed"/>
<text x="398.5" y="452" text-anchor="middle" class="tick">m=3</text>
<rect x="518.3" y="303.5" width="52.5" height="124.5" fill="#2563eb"/>
<rect x="573.8" y="365.0" width="52.5" height="63.0" fill="#16a34a"/>
<rect x="629.2" y="395.5" width="52.5" height="32.5" fill="#7c3aed"/>
<text x="601.5" y="452" text-anchor="middle" class="tick">m=5</text>
<rect x="721.3" y="134.1" width="52.5" height="293.9" fill="#2563eb"/>
<rect x="776.8" y="280.5" width="52.5" height="147.5" fill="#16a34a"/>
<rect x="832.2" y="352.9" width="52.5" height="75.1" fill="#7c3aed"/>
<text x="804.5" y="452" text-anchor="middle" class="tick">m=8</text>
<rect x="102" y="69" width="12" height="12" fill="#2563eb"/>
<text x="120" y="80" class="legend">np=2</text>
<rect x="102" y="89" width="12" height="12" fill="#16a34a"/>
<text x="120" y="100" class="legend">np=4</text>
<rect x="102" y="109" width="12" height="12" fill="#7c3aed"/>
<text x="120" y="120" class="legend">np=8</text>
</svg>
