<svg xmlns="http://www.w3.org/2000/svg" width="940" height="540" viewBox="0 0 940 540">
<rect width="100%" height="100%" fill="#ffffff"/>
<style>
text{font-family:Arial,Helvetica,sans-serif;fill:#1f2933}
.title{font-size:18px;font-weight:700}
.axis{stroke:#52606d;stroke-width:1}
.grid{stroke:#d9e2ec;stroke-width:1}
.tick{font-size:11px;fill:#52606d}
.label{font-size:12px;fill:#334e68}
.point-label{font-size:11px;fill:#243b53;font-weight:600}
.legend{font-size:12px;fill:#243b53}
</style>
<text x="470.0" y="28" text-anchor="middle" class="title">MPI Mode Comparison</text>
<line x1="94" y1="428" x2="906" y2="428" class="axis"/>
<line x1="94" y1="62" x2="94" y2="428" class="axis"/>
<line x1="94" y1="428.0" x2="906" y2="428.0" class="grid"/>
<text x="86" y="432.0" text-anchor="end" class="tick">0.00</text>
<line x1="94" y1="306.0" x2="906" y2="306.0" class="grid"/>
<text x="86" y="310.0" text-anchor="end" class="tick">50.00</text>
<line x1="94" y1="184.0" x2="906" y2="184.0" class="grid"/>
<text x="86" y="188.0" text-anchor="end" class="tick">100.00</text>
<line x1="94" y1="62.0" x2="906" y2="62.0" class="grid"/>
<text x="86" y="66.0" text-anchor="end" class="tick">150.00</text>
<text x="500.0" y="528" text-anchor="middle" class="label">64x64x2048, m=5</text>
<text x="16" y="245.0" text-anchor="middle" class="label" transform="rotate(-90 16 245.0)">total_s_max mean (ms)</text>
<rect x="118.4" y="179.0" width="108.0" height="249.0" fill="#2563eb"/>
<rect x="229.3" y="176.6" width="108.0" height="251.4" fill="#dc2626"/>
<text x="229.3" y="452" text-anchor="middle" class="tick">np=2</text>
<rect x="389.0" y="302.1" width="108.0" height="125.9" fill="#2563eb"/>
<rect x="500.0" y="300.2" width="108.0" height="127.8" fill="#dc2626"/>
<text x="500.0" y="452" text-anchor="middle" class="tick">np=4</text>
<rect x="659.7" y="363.0" width="108.0" height="65.0" fill="#2563eb"/>
<rect x="770.7" y="359.7" width="108.0" height="68.3" fill="#dc2626"/>
<text x="770.7" y="452" text-anchor="middle" class="tick">np=8</text>
<rect x="102" y="69" width="12" height="12" fill="#2563eb"/>
<text x="120" y="80" class="legend">device</text>
<rect x="102" y="89" width="12" height="12" fill="#dc2626"/>
<text x="120" y="100" class="legend">host</text>
</svg>
