<svg xmlns="http://www.w3.org/2000/svg" width="940" height="540" viewBox="0 0 940 540">
<rect width="100%" height="100%" fill="#ffffff"/>
<style>
text{font-family:Arial,Helvetica,sans-serif;fill:#1f2933}
.title{font-size:18px;font-weight:700}
.axis{stroke:#52606d;stroke-width:1}
.grid{stroke:#d9e2ec;stroke-width:1}
.tick{font-size:11px;fill:#52606d}
.label{font-size:12px;fill:#334e68}
.point-label{font-size:11px;fill:#243b53;font-weight:600}
.legend{font-size:12px;fill:#243b53}
</style>
<text x="470.0" y="28" text-anchor="middle" class="title">Warm-up Effect: First Iteration vs Stable Mean</text>
<line x1="94" y1="428" x2="906" y2="428" class="axis"/>
<line x1="94" y1="62" x2="94" y2="428" class="axis"/>
<line x1="94" y1="428.0" x2="906" y2="428.0" class="grid"/>
<text x="86" y="432.0" text-anchor="end" class="tick">0.00</text>
<line x1="94" y1="306.0" x2="906" y2="306.0" class="grid"/>
<text x="86" y="310.0" text-anchor="end" class="tick">100.00</text>
<line x1="94" y1="184.0" x2="906" y2="184.0" class="grid"/>
<text x="86" y="188.0" text-anchor="end" class="tick">200.00</text>
<line x1="94" y1="62.0" x2="906" y2="62.0" class="grid"/>
<text x="86" y="66.0" text-anchor="end" class="tick">300.00</text>
<text x="500.0" y="528" text-anchor="middle" class="label">64x64x2048, m=5, device mode</text>
<text x="16" y="245.0" text-anchor="middle" class="label" transform="rotate(-90 16 245.0)">total_s_max (ms)</text>
<rect x="118.4" y="241.1" width="108.0" height="186.9" fill="#dc2626"/>
<rect x="229.3" y="303.5" width="108.0" height="124.5" fill="#2563eb"/>
<text x="229.3" y="452" text-anchor="middle" class="tick">np=2</text>
<rect x="389.0" y="248.0" width="108.0" height="180.0" fill="#dc2626"/>
<rect x="500.0" y="365.0" width="108.0" height="63.0" fill="#2563eb"/>
<text x="500.0" y="452" text-anchor="middle" class="tick">np=4</text>
<rect x="659.7" y="154.4" width="108.0" height="273.6" fill="#dc2626"/>
<rect x="770.7" y="395.5" width="108.0" height="32.5" fill="#2563eb"/>
<text x="770.7" y="452" text-anchor="middle" class="tick">np=8</text>
<rect x="102" y="69" width="12" height="12" fill="#dc2626"/>
<text x="120" y="80" class="legend">iter 0</text>
<rect x="102" y="89" width="12" height="12" fill="#2563eb"/>
<text x="120" y="100" class="legend">iter 1-9 mean</text>
</svg>
